  <svg
              width="179"
              height="31"
              viewBox="0 0 179 31"
              fill="none"
              xmlns="http://www.w3.org/2000/svg"
            >
              <path d="M27.0116 0L36 15.5H17.8182L27.0116 0Z" fill="#F1F052" />
              <path
                d="M27.0116 31L36 15.5H17.8182L27.0116 31Z"
                fill="#B1E182"
              />
              <path
                d="M8.95455 0H27.012L17.8182 15.5H0L8.95455 0Z"
                fill="#479E82"
              />
              <path
                d="M8.95455 31H27.012L17.8182 15.5H0L8.95455 31Z"
                fill="#1B454D"
              />
              <path
                d="M49.4376 4.22799C50.4643 4.22799 51.3649 4.42865 52.1396 4.82999C52.9236 5.23132 53.5256 5.80532 53.9456 6.55199C54.3749 7.28932 54.5896 8.14799 54.5896 9.12799C54.5896 10.108 54.3749 10.9667 53.9456 11.704C53.5256 12.432 52.9236 12.9967 52.1396 13.398C51.3649 13.7993 50.4643 14 49.4376 14H46.0216V4.22799H49.4376ZM49.3676 12.334C50.3943 12.334 51.1876 12.054 51.7476 11.494C52.3076 10.934 52.5876 10.1453 52.5876 9.12799C52.5876 8.11065 52.3076 7.31732 51.7476 6.74799C51.1876 6.16932 50.3943 5.87999 49.3676 5.87999H47.9816V12.334H49.3676Z"
                fill="#141416"
              />
              <path
                d="M63.2668 9.95399C63.2668 10.234 63.2481 10.486 63.2108 10.71H57.5408C57.5874 11.27 57.7834 11.7087 58.1288 12.026C58.4741 12.3433 58.8988 12.502 59.4028 12.502C60.1308 12.502 60.6488 12.1893 60.9568 11.564H63.0708C62.8468 12.3107 62.4174 12.9267 61.7828 13.412C61.1481 13.888 60.3688 14.126 59.4448 14.126C58.6981 14.126 58.0261 13.9627 57.4288 13.636C56.8408 13.3 56.3788 12.8287 56.0428 12.222C55.7161 11.6153 55.5528 10.9153 55.5528 10.122C55.5528 9.31932 55.7161 8.61465 56.0428 8.00799C56.3694 7.40132 56.8268 6.93465 57.4148 6.60799C58.0028 6.28132 58.6794 6.11799 59.4448 6.11799C60.1821 6.11799 60.8401 6.27665 61.4188 6.59399C62.0068 6.91132 62.4594 7.36399 62.7768 7.95199C63.1034 8.53065 63.2668 9.19799 63.2668 9.95399ZM61.2368 9.39399C61.2274 8.88999 61.0454 8.48865 60.6908 8.18999C60.3361 7.88199 59.9021 7.72799 59.3888 7.72799C58.9034 7.72799 58.4928 7.87732 58.1568 8.17599C57.8301 8.46532 57.6294 8.87132 57.5548 9.39399H61.2368Z"
                fill="#141416"
              />
              <path
                d="M67.6654 14.126C67.0307 14.126 66.4614 14.014 65.9574 13.79C65.4534 13.5567 65.0521 13.244 64.7534 12.852C64.4641 12.46 64.3054 12.026 64.2774 11.55H66.2514C66.2887 11.8487 66.4334 12.096 66.6854 12.292C66.9467 12.488 67.2687 12.586 67.6514 12.586C68.0247 12.586 68.3141 12.5113 68.5194 12.362C68.7341 12.2127 68.8414 12.0213 68.8414 11.788C68.8414 11.536 68.7107 11.3493 68.4494 11.228C68.1974 11.0973 67.7914 10.9573 67.2314 10.808C66.6527 10.668 66.1767 10.5233 65.8034 10.374C65.4394 10.2247 65.1221 9.99599 64.8514 9.68799C64.5901 9.37999 64.4594 8.96465 64.4594 8.44199C64.4594 8.01265 64.5807 7.62065 64.8234 7.26599C65.0754 6.91132 65.4301 6.63132 65.8874 6.42599C66.3541 6.22065 66.9001 6.11799 67.5254 6.11799C68.4494 6.11799 69.1867 6.35132 69.7374 6.81799C70.2881 7.27532 70.5914 7.89599 70.6474 8.67999H68.7714C68.7434 8.37199 68.6127 8.12932 68.3794 7.95199C68.1554 7.76532 67.8521 7.67199 67.4694 7.67199C67.1147 7.67199 66.8394 7.73732 66.6434 7.86799C66.4567 7.99865 66.3634 8.18065 66.3634 8.41399C66.3634 8.67532 66.4941 8.87599 66.7554 9.01599C67.0167 9.14665 67.4227 9.28199 67.9734 9.42199C68.5334 9.56199 68.9954 9.70665 69.3594 9.85599C69.7234 10.0053 70.0361 10.2387 70.2974 10.556C70.5681 10.864 70.7081 11.2747 70.7174 11.788C70.7174 12.236 70.5914 12.6373 70.3394 12.992C70.0967 13.3467 69.7421 13.6267 69.2754 13.832C68.8181 14.028 68.2814 14.126 67.6654 14.126Z"
                fill="#141416"
              />
              <path
                d="M73.3203 5.31999C72.975 5.31999 72.6856 5.21265 72.4523 4.99799C72.2283 4.77399 72.1163 4.49865 72.1163 4.17199C72.1163 3.84532 72.2283 3.57465 72.4523 3.35999C72.6856 3.13599 72.975 3.02399 73.3203 3.02399C73.6656 3.02399 73.9503 3.13599 74.1743 3.35999C74.4076 3.57465 74.5243 3.84532 74.5243 4.17199C74.5243 4.49865 74.4076 4.77399 74.1743 4.99799C73.9503 5.21265 73.6656 5.31999 73.3203 5.31999ZM74.2863 6.24399V14H72.3263V6.24399H74.2863Z"
                fill="#141416"
              />
              <path
                d="M79.2608 6.11799C79.8394 6.11799 80.3481 6.23465 80.7868 6.46799C81.2254 6.69199 81.5708 6.98599 81.8228 7.34999V6.24399H83.7968V14.056C83.7968 14.7747 83.6521 15.414 83.3628 15.974C83.0734 16.5433 82.6394 16.9913 82.0608 17.318C81.4821 17.654 80.7821 17.822 79.9608 17.822C78.8594 17.822 77.9541 17.5653 77.2448 17.052C76.5448 16.5387 76.1481 15.8387 76.0548 14.952H78.0008C78.1034 15.3067 78.3228 15.5867 78.6588 15.792C79.0041 16.0067 79.4194 16.114 79.9048 16.114C80.4741 16.114 80.9361 15.9413 81.2908 15.596C81.6454 15.26 81.8228 14.7467 81.8228 14.056V12.852C81.5708 13.216 81.2208 13.5193 80.7728 13.762C80.3341 14.0047 79.8301 14.126 79.2608 14.126C78.6074 14.126 78.0101 13.958 77.4688 13.622C76.9274 13.286 76.4981 12.8147 76.1808 12.208C75.8728 11.592 75.7188 10.8873 75.7188 10.094C75.7188 9.30999 75.8728 8.61465 76.1808 8.00799C76.4981 7.40132 76.9228 6.93465 77.4548 6.60799C77.9961 6.28132 78.5981 6.11799 79.2608 6.11799ZM81.8228 10.122C81.8228 9.64599 81.7294 9.23999 81.5428 8.90399C81.3561 8.55865 81.1041 8.29732 80.7868 8.11999C80.4694 7.93332 80.1288 7.83999 79.7648 7.83999C79.4008 7.83999 79.0648 7.92865 78.7568 8.10599C78.4488 8.28332 78.1968 8.54465 78.0008 8.88999C77.8141 9.22599 77.7208 9.62732 77.7208 10.094C77.7208 10.5607 77.8141 10.9713 78.0008 11.326C78.1968 11.6713 78.4488 11.9373 78.7568 12.124C79.0741 12.3107 79.4101 12.404 79.7648 12.404C80.1288 12.404 80.4694 12.3153 80.7868 12.138C81.1041 11.9513 81.3561 11.69 81.5428 11.354C81.7294 11.0087 81.8228 10.598 81.8228 10.122Z"
                fill="#141416"
              />
              <path
                d="M90.0091 6.13199C90.9331 6.13199 91.6797 6.42599 92.2491 7.01399C92.8184 7.59265 93.1031 8.40465 93.1031 9.44999V14H91.1431V9.71599C91.1431 9.09999 90.9891 8.62865 90.6811 8.30199C90.3731 7.96599 89.9531 7.79799 89.4211 7.79799C88.8797 7.79799 88.4504 7.96599 88.1331 8.30199C87.8251 8.62865 87.6711 9.09999 87.6711 9.71599V14H85.7111V6.24399H87.6711V7.20999C87.9324 6.87399 88.2637 6.61265 88.6651 6.42599C89.0757 6.22999 89.5237 6.13199 90.0091 6.13199Z"
                fill="#141416"
              />
              <path
                d="M100.263 5.80999V8.25999H103.553V9.81399H100.263V12.404H103.973V14H98.3029V4.21399H103.973V5.80999H100.263Z"
                fill="#141416"
              />
              <path
                d="M107.714 3.63999V14H105.754V3.63999H107.714Z"
                fill="#141416"
              />
              <path
                d="M116.861 9.95399C116.861 10.234 116.842 10.486 116.805 10.71H111.135C111.181 11.27 111.377 11.7087 111.723 12.026C112.068 12.3433 112.493 12.502 112.997 12.502C113.725 12.502 114.243 12.1893 114.551 11.564H116.665C116.441 12.3107 116.011 12.9267 115.377 13.412C114.742 13.888 113.963 14.126 113.039 14.126C112.292 14.126 111.62 13.9627 111.023 13.636C110.435 13.3 109.973 12.8287 109.637 12.222C109.31 11.6153 109.147 10.9153 109.147 10.122C109.147 9.31932 109.31 8.61465 109.637 8.00799C109.963 7.40132 110.421 6.93465 111.009 6.60799C111.597 6.28132 112.273 6.11799 113.039 6.11799C113.776 6.11799 114.434 6.27665 115.013 6.59399C115.601 6.91132 116.053 7.36399 116.371 7.95199C116.697 8.53065 116.861 9.19799 116.861 9.95399ZM114.831 9.39399C114.821 8.88999 114.639 8.48865 114.285 8.18999C113.93 7.88199 113.496 7.72799 112.983 7.72799C112.497 7.72799 112.087 7.87732 111.751 8.17599C111.424 8.46532 111.223 8.87132 111.149 9.39399H114.831Z"
                fill="#141416"
              />
              <path
                d="M127.923 6.13199C128.875 6.13199 129.64 6.42599 130.219 7.01399C130.807 7.59265 131.101 8.40465 131.101 9.44999V14H129.141V9.71599C129.141 9.10932 128.987 8.64732 128.679 8.32999C128.371 8.00332 127.951 7.83999 127.419 7.83999C126.887 7.83999 126.462 8.00332 126.145 8.32999C125.837 8.64732 125.683 9.10932 125.683 9.71599V14H123.723V9.71599C123.723 9.10932 123.569 8.64732 123.261 8.32999C122.953 8.00332 122.533 7.83999 122.001 7.83999C121.46 7.83999 121.03 8.00332 120.713 8.32999C120.405 8.64732 120.251 9.10932 120.251 9.71599V14H118.291V6.24399H120.251V7.18199C120.503 6.85532 120.825 6.59865 121.217 6.41199C121.618 6.22532 122.057 6.13199 122.533 6.13199C123.14 6.13199 123.681 6.26265 124.157 6.52399C124.633 6.77599 125.002 7.13999 125.263 7.61599C125.515 7.16799 125.879 6.80865 126.355 6.53799C126.84 6.26732 127.363 6.13199 127.923 6.13199Z"
                fill="#141416"
              />
              <path
                d="M140.171 9.95399C140.171 10.234 140.152 10.486 140.115 10.71H134.445C134.492 11.27 134.688 11.7087 135.033 12.026C135.378 12.3433 135.803 12.502 136.307 12.502C137.035 12.502 137.553 12.1893 137.861 11.564H139.975C139.751 12.3107 139.322 12.9267 138.687 13.412C138.052 13.888 137.273 14.126 136.349 14.126C135.602 14.126 134.93 13.9627 134.333 13.636C133.745 13.3 133.283 12.8287 132.947 12.222C132.62 11.6153 132.457 10.9153 132.457 10.122C132.457 9.31932 132.62 8.61465 132.947 8.00799C133.274 7.40132 133.731 6.93465 134.319 6.60799C134.907 6.28132 135.584 6.11799 136.349 6.11799C137.086 6.11799 137.744 6.27665 138.323 6.59399C138.911 6.91132 139.364 7.36399 139.681 7.95199C140.008 8.53065 140.171 9.19799 140.171 9.95399ZM138.141 9.39399C138.132 8.88999 137.95 8.48865 137.595 8.18999C137.24 7.88199 136.806 7.72799 136.293 7.72799C135.808 7.72799 135.397 7.87732 135.061 8.17599C134.734 8.46532 134.534 8.87132 134.459 9.39399H138.141Z"
                fill="#141416"
              />
              <path
                d="M145.9 6.13199C146.824 6.13199 147.57 6.42599 148.14 7.01399C148.709 7.59265 148.994 8.40465 148.994 9.44999V14H147.034V9.71599C147.034 9.09999 146.88 8.62865 146.572 8.30199C146.264 7.96599 145.844 7.79799 145.312 7.79799C144.77 7.79799 144.341 7.96599 144.024 8.30199C143.716 8.62865 143.562 9.09999 143.562 9.71599V14H141.602V6.24399H143.562V7.20999C143.823 6.87399 144.154 6.61265 144.556 6.42599C144.966 6.22999 145.414 6.13199 145.9 6.13199Z"
                fill="#141416"
              />
              <path
                d="M153.14 7.85399V11.606C153.14 11.8673 153.2 12.0587 153.322 12.18C153.452 12.292 153.667 12.348 153.966 12.348H154.876V14H153.644C151.992 14 151.166 13.1973 151.166 11.592V7.85399H150.242V6.24399H151.166V4.32599H153.14V6.24399H154.876V7.85399H153.14Z"
                fill="#141416"
              />
              <path
                d="M155.781 10.094C155.781 9.30999 155.935 8.61465 156.243 8.00799C156.561 7.40132 156.985 6.93465 157.517 6.60799C158.059 6.28132 158.661 6.11799 159.323 6.11799C159.902 6.11799 160.406 6.23465 160.835 6.46799C161.274 6.70132 161.624 6.99532 161.885 7.34999V6.24399H163.859V14H161.885V12.866C161.633 13.23 161.283 13.5333 160.835 13.776C160.397 14.0093 159.888 14.126 159.309 14.126C158.656 14.126 158.059 13.958 157.517 13.622C156.985 13.286 156.561 12.8147 156.243 12.208C155.935 11.592 155.781 10.8873 155.781 10.094ZM161.885 10.122C161.885 9.64599 161.792 9.23999 161.605 8.90399C161.419 8.55865 161.167 8.29732 160.849 8.11999C160.532 7.93332 160.191 7.83999 159.827 7.83999C159.463 7.83999 159.127 7.92865 158.819 8.10599C158.511 8.28332 158.259 8.54465 158.063 8.88999C157.877 9.22599 157.783 9.62732 157.783 10.094C157.783 10.5607 157.877 10.9713 158.063 11.326C158.259 11.6713 158.511 11.9373 158.819 12.124C159.137 12.3107 159.473 12.404 159.827 12.404C160.191 12.404 160.532 12.3153 160.849 12.138C161.167 11.9513 161.419 11.69 161.605 11.354C161.792 11.0087 161.885 10.598 161.885 10.122Z"
                fill="#141416"
              />
              <path
                d="M167.734 7.44799C167.986 7.03732 168.312 6.71532 168.714 6.48199C169.124 6.24865 169.591 6.13199 170.114 6.13199V8.18999H169.596C168.98 8.18999 168.513 8.33465 168.196 8.62399C167.888 8.91332 167.734 9.41732 167.734 10.136V14H165.774V6.24399H167.734V7.44799Z"
                fill="#141416"
              />
              <path
                d="M178.854 6.24399L174.052 17.668H171.966L173.646 13.804L170.538 6.24399H172.736L174.738 11.662L176.768 6.24399H178.854Z"
                fill="#141416"
              />
              <path
                d="M49.2355 28.096C48.6862 28.096 48.2115 27.976 47.8115 27.736C47.4168 27.4907 47.1102 27.152 46.8915 26.72C46.6728 26.2827 46.5635 25.776 46.5635 25.2C46.5635 24.6293 46.6728 24.128 46.8915 23.696C47.1102 23.2587 47.4168 22.9173 47.8115 22.672C48.2115 22.4267 48.6862 22.304 49.2355 22.304C49.8755 22.304 50.3955 22.4587 50.7955 22.768C51.2008 23.072 51.4595 23.4987 51.5715 24.048H50.8275C50.7422 23.7013 50.5662 23.424 50.2995 23.216C50.0382 23.0027 49.6835 22.896 49.2355 22.896C48.8355 22.896 48.4862 22.9893 48.1875 23.176C47.8888 23.3573 47.6568 23.6213 47.4915 23.968C47.3315 24.3093 47.2515 24.72 47.2515 25.2C47.2515 25.68 47.3315 26.0933 47.4915 26.44C47.6568 26.7813 47.8888 27.0453 48.1875 27.232C48.4862 27.4133 48.8355 27.504 49.2355 27.504C49.6835 27.504 50.0382 27.4027 50.2995 27.2C50.5662 26.992 50.7422 26.7173 50.8275 26.376H51.5715C51.4595 26.9147 51.2008 27.336 50.7955 27.64C50.3955 27.944 49.8755 28.096 49.2355 28.096ZM52.3373 28V24.032H52.9453L53.0013 24.792C53.124 24.5307 53.3106 24.3227 53.5613 24.168C53.812 24.0133 54.1213 23.936 54.4893 23.936V24.64H54.3053C54.0706 24.64 53.8546 24.6827 53.6573 24.768C53.46 24.848 53.3026 24.9867 53.1853 25.184C53.068 25.3813 53.0093 25.6533 53.0093 26V28H52.3373ZM56.4036 28.096C56.0729 28.096 55.7982 28.04 55.5796 27.928C55.3609 27.816 55.1982 27.6667 55.0916 27.48C54.9849 27.2933 54.9316 27.0907 54.9316 26.872C54.9316 26.4667 55.0862 26.1547 55.3956 25.936C55.7049 25.7173 56.1262 25.608 56.6596 25.608H57.7316V25.56C57.7316 25.2133 57.6409 24.952 57.4596 24.776C57.2782 24.5947 57.0356 24.504 56.7316 24.504C56.4702 24.504 56.2436 24.5707 56.0516 24.704C55.8649 24.832 55.7476 25.0213 55.6996 25.272H55.0116C55.0382 24.984 55.1342 24.7413 55.2996 24.544C55.4702 24.3467 55.6809 24.1973 55.9316 24.096C56.1822 23.9893 56.4489 23.936 56.7316 23.936C57.2862 23.936 57.7022 24.0853 57.9796 24.384C58.2622 24.6773 58.4036 25.0693 58.4036 25.56V28H57.8036L57.7636 27.288C57.6516 27.512 57.4862 27.704 57.2676 27.864C57.0542 28.0187 56.7662 28.096 56.4036 28.096ZM56.5076 27.528C56.7636 27.528 56.9822 27.4613 57.1636 27.328C57.3502 27.1947 57.4916 27.0213 57.5876 26.808C57.6836 26.5947 57.7316 26.3707 57.7316 26.136V26.128H56.7156C56.3209 26.128 56.0409 26.1973 55.8756 26.336C55.7156 26.4693 55.6356 26.6373 55.6356 26.84C55.6356 27.048 55.7102 27.216 55.8596 27.344C56.0142 27.4667 56.2302 27.528 56.5076 27.528ZM59.4677 28V24.6H58.8677V24.032H59.4677V23.344C59.4677 22.96 59.5637 22.68 59.7557 22.504C59.9477 22.328 60.2277 22.24 60.5957 22.24H60.9957V22.816H60.6997C60.497 22.816 60.353 22.8587 60.2677 22.944C60.1824 23.024 60.1397 23.1627 60.1397 23.36V24.032H61.1157V24.6H60.1397V28H59.4677ZM63.3237 28C62.9611 28 62.6757 27.912 62.4677 27.736C62.2597 27.56 62.1557 27.2427 62.1557 26.784V24.6H61.4677V24.032H62.1557L62.2437 23.08H62.8277V24.032H63.9957V24.6H62.8277V26.784C62.8277 27.0347 62.8784 27.2053 62.9797 27.296C63.0811 27.3813 63.2597 27.424 63.5157 27.424H63.9317V28H63.3237ZM65.0975 23.152C64.9642 23.152 64.8522 23.1093 64.7615 23.024C64.6762 22.9333 64.6335 22.8213 64.6335 22.688C64.6335 22.56 64.6762 22.4533 64.7615 22.368C64.8522 22.2827 64.9642 22.24 65.0975 22.24C65.2255 22.24 65.3348 22.2827 65.4255 22.368C65.5162 22.4533 65.5615 22.56 65.5615 22.688C65.5615 22.8213 65.5162 22.9333 65.4255 23.024C65.3348 23.1093 65.2255 23.152 65.0975 23.152ZM64.7615 28V24.032H65.4335V28H64.7615ZM66.4436 28V24.032H67.0516L67.0916 24.744C67.2196 24.4933 67.4036 24.296 67.6436 24.152C67.8836 24.008 68.1556 23.936 68.4596 23.936C68.9289 23.936 69.3022 24.08 69.5796 24.368C69.8622 24.6507 70.0036 25.088 70.0036 25.68V28H69.3316V25.752C69.3316 24.9253 68.9902 24.512 68.3076 24.512C67.9662 24.512 67.6809 24.6373 67.4516 24.888C67.2276 25.1333 67.1156 25.4853 67.1156 25.944V28H66.4436ZM72.4297 26.752C72.2057 26.752 72.0004 26.7227 71.8137 26.664L71.4137 27.04C71.4724 27.0827 71.5444 27.12 71.6297 27.152C71.7204 27.1787 71.8484 27.2053 72.0137 27.232C72.179 27.2533 72.411 27.2773 72.7097 27.304C73.243 27.3413 73.6244 27.464 73.8537 27.672C74.083 27.88 74.1977 28.152 74.1977 28.488C74.1977 28.7173 74.1337 28.936 74.0057 29.144C73.883 29.352 73.691 29.5227 73.4297 29.656C73.1737 29.7893 72.843 29.856 72.4377 29.856C72.0804 29.856 71.763 29.808 71.4857 29.712C71.2084 29.6213 70.9924 29.48 70.8377 29.288C70.683 29.1013 70.6057 28.864 70.6057 28.576C70.6057 28.4267 70.6457 28.264 70.7257 28.088C70.8057 27.9173 70.955 27.7547 71.1737 27.6C71.0564 27.552 70.955 27.5013 70.8697 27.448C70.7897 27.3893 70.715 27.3253 70.6457 27.256V27.072L71.3257 26.4C71.011 26.1333 70.8537 25.7813 70.8537 25.344C70.8537 25.0827 70.915 24.8453 71.0377 24.632C71.1604 24.4187 71.339 24.2507 71.5737 24.128C71.8084 24 72.0937 23.936 72.4297 23.936C72.659 23.936 72.867 23.968 73.0537 24.032H74.5177V24.536L73.7737 24.568C73.9284 24.792 74.0057 25.0507 74.0057 25.344C74.0057 25.6053 73.9417 25.8427 73.8137 26.056C73.691 26.2693 73.5124 26.44 73.2777 26.568C73.0484 26.6907 72.7657 26.752 72.4297 26.752ZM72.4297 26.2C72.7124 26.2 72.9364 26.128 73.1017 25.984C73.2724 25.8347 73.3577 25.6213 73.3577 25.344C73.3577 25.072 73.2724 24.864 73.1017 24.72C72.9364 24.5707 72.7124 24.496 72.4297 24.496C72.1417 24.496 71.9124 24.5707 71.7417 24.72C71.5764 24.864 71.4937 25.072 71.4937 25.344C71.4937 25.6213 71.5764 25.8347 71.7417 25.984C71.9124 26.128 72.1417 26.2 72.4297 26.2ZM71.2617 28.512C71.2617 28.7787 71.3737 28.976 71.5977 29.104C71.8217 29.2373 72.1017 29.304 72.4377 29.304C72.7684 29.304 73.0324 29.232 73.2297 29.088C73.4324 28.944 73.5337 28.752 73.5337 28.512C73.5337 28.3413 73.4644 28.192 73.3257 28.064C73.187 27.9413 72.931 27.8693 72.5577 27.848C72.2644 27.8267 72.011 27.8 71.7977 27.768C71.579 27.8853 71.435 28.0107 71.3657 28.144C71.2964 28.2827 71.2617 28.4053 71.2617 28.512ZM77.1129 28V22.4H79.0809C79.4756 22.4 79.8009 22.464 80.0569 22.592C80.3183 22.7147 80.5129 22.8853 80.6409 23.104C80.7689 23.3173 80.8329 23.5573 80.8329 23.824C80.8329 24.1867 80.7343 24.472 80.5369 24.68C80.3449 24.888 80.1129 25.032 79.8409 25.112C80.0489 25.1493 80.2383 25.232 80.4089 25.36C80.5796 25.488 80.7129 25.648 80.8089 25.84C80.9103 26.032 80.9609 26.2427 80.9609 26.472C80.9609 26.7547 80.8916 27.0133 80.7529 27.248C80.6143 27.4773 80.4089 27.6613 80.1369 27.8C79.8649 27.9333 79.5343 28 79.1449 28H77.1129ZM77.7849 24.848H79.0329C79.3903 24.848 79.6649 24.7653 79.8569 24.6C80.0489 24.4293 80.1449 24.1947 80.1449 23.896C80.1449 23.6133 80.0489 23.3867 79.8569 23.216C79.6703 23.0453 79.3876 22.96 79.0089 22.96H77.7849V24.848ZM77.7849 27.44H79.0729C79.4569 27.44 79.7529 27.352 79.9609 27.176C80.1689 26.9947 80.2729 26.744 80.2729 26.424C80.2729 26.1093 80.1636 25.8587 79.9449 25.672C79.7263 25.48 79.4303 25.384 79.0569 25.384H77.7849V27.44ZM83.5094 28.096C83.1308 28.096 82.7948 28.0107 82.5014 27.84C82.2081 27.664 81.9761 27.4213 81.8054 27.112C81.6401 26.8027 81.5574 26.4373 81.5574 26.016C81.5574 25.6 81.6401 25.2373 81.8054 24.928C81.9708 24.6133 82.2001 24.3707 82.4934 24.2C82.7921 24.024 83.1361 23.936 83.5254 23.936C83.9094 23.936 84.2401 24.024 84.5174 24.2C84.8001 24.3707 85.0161 24.5973 85.1654 24.88C85.3148 25.1627 85.3894 25.4667 85.3894 25.792C85.3894 25.8507 85.3868 25.9093 85.3814 25.968C85.3814 26.0267 85.3814 26.0933 85.3814 26.168H82.2214C82.2374 26.472 82.3068 26.7253 82.4294 26.928C82.5574 27.1253 82.7148 27.2747 82.9014 27.376C83.0934 27.4773 83.2961 27.528 83.5094 27.528C83.7868 27.528 84.0188 27.464 84.2054 27.336C84.3921 27.208 84.5281 27.0347 84.6134 26.816H85.2774C85.1708 27.184 84.9654 27.4907 84.6614 27.736C84.3628 27.976 83.9788 28.096 83.5094 28.096ZM83.5094 24.504C83.1894 24.504 82.9041 24.6027 82.6534 24.8C82.4081 24.992 82.2668 25.2747 82.2294 25.648H84.7254C84.7094 25.2907 84.5868 25.0107 84.3574 24.808C84.1281 24.6053 83.8454 24.504 83.5094 24.504ZM87.4401 28.096C87.1095 28.096 86.8348 28.04 86.6161 27.928C86.3975 27.816 86.2348 27.6667 86.1281 27.48C86.0215 27.2933 85.9681 27.0907 85.9681 26.872C85.9681 26.4667 86.1228 26.1547 86.4321 25.936C86.7415 25.7173 87.1628 25.608 87.6961 25.608H88.7681V25.56C88.7681 25.2133 88.6775 24.952 88.4961 24.776C88.3148 24.5947 88.0721 24.504 87.7681 24.504C87.5068 24.504 87.2801 24.5707 87.0881 24.704C86.9015 24.832 86.7841 25.0213 86.7361 25.272H86.0481C86.0748 24.984 86.1708 24.7413 86.3361 24.544C86.5068 24.3467 86.7175 24.1973 86.9681 24.096C87.2188 23.9893 87.4855 23.936 87.7681 23.936C88.3228 23.936 88.7388 24.0853 89.0161 24.384C89.2988 24.6773 89.4401 25.0693 89.4401 25.56V28H88.8401L88.8001 27.288C88.6881 27.512 88.5228 27.704 88.3041 27.864C88.0908 28.0187 87.8028 28.096 87.4401 28.096ZM87.5441 27.528C87.8001 27.528 88.0188 27.4613 88.2001 27.328C88.3868 27.1947 88.5281 27.0213 88.6241 26.808C88.7201 26.5947 88.7681 26.3707 88.7681 26.136V26.128H87.7521C87.3575 26.128 87.0775 26.1973 86.9121 26.336C86.7521 26.4693 86.6721 26.6373 86.6721 26.84C86.6721 27.048 86.7468 27.216 86.8961 27.344C87.0508 27.4667 87.2668 27.528 87.5441 27.528ZM91.7363 28.096C91.2669 28.096 90.8936 27.9547 90.6163 27.672C90.3389 27.384 90.2003 26.944 90.2003 26.352V24.032H90.8723V26.28C90.8723 27.1067 91.2109 27.52 91.8883 27.52C92.2349 27.52 92.5203 27.3973 92.7443 27.152C92.9736 26.9013 93.0883 26.5467 93.0883 26.088V24.032H93.7603V28H93.1523L93.1043 27.288C92.9816 27.5387 92.7976 27.736 92.5523 27.88C92.3123 28.024 92.0403 28.096 91.7363 28.096ZM96.2744 28C95.9117 28 95.6264 27.912 95.4184 27.736C95.2104 27.56 95.1064 27.2427 95.1064 26.784V24.6H94.4184V24.032H95.1064L95.1944 23.08H95.7784V24.032H96.9464V24.6H95.7784V26.784C95.7784 27.0347 95.829 27.2053 95.9304 27.296C96.0317 27.3813 96.2104 27.424 96.4664 27.424H96.8824V28H96.2744ZM98.0481 23.152C97.9148 23.152 97.8028 23.1093 97.7121 23.024C97.6268 22.9333 97.5841 22.8213 97.5841 22.688C97.5841 22.56 97.6268 22.4533 97.7121 22.368C97.8028 22.2827 97.9148 22.24 98.0481 22.24C98.1761 22.24 98.2855 22.2827 98.3761 22.368C98.4668 22.4533 98.5121 22.56 98.5121 22.688C98.5121 22.8213 98.4668 22.9333 98.3761 23.024C98.2855 23.1093 98.1761 23.152 98.0481 23.152ZM97.7121 28V24.032H98.3841V28H97.7121ZM99.6102 28V24.6H99.0102V24.032H99.6102V23.344C99.6102 22.96 99.7062 22.68 99.8982 22.504C100.09 22.328 100.37 22.24 100.738 22.24H101.138V22.816H100.842C100.64 22.816 100.496 22.8587 100.41 22.944C100.325 23.024 100.282 23.1627 100.282 23.36V24.032H101.258V24.6H100.282V28H99.6102ZM103.346 28.096C102.877 28.096 102.504 27.9547 102.226 27.672C101.949 27.384 101.81 26.944 101.81 26.352V24.032H102.482V26.28C102.482 27.1067 102.821 27.52 103.498 27.52C103.845 27.52 104.13 27.3973 104.354 27.152C104.584 26.9013 104.698 26.5467 104.698 26.088V24.032H105.37V28H104.762L104.714 27.288C104.592 27.5387 104.408 27.736 104.162 27.88C103.922 28.024 103.65 28.096 103.346 28.096ZM106.316 28V22.24H106.988V28H106.316ZM112.383 28.096C111.834 28.096 111.359 27.976 110.959 27.736C110.564 27.4907 110.258 27.152 110.039 26.72C109.82 26.2827 109.711 25.776 109.711 25.2C109.711 24.6293 109.82 24.128 110.039 23.696C110.258 23.2587 110.564 22.9173 110.959 22.672C111.359 22.4267 111.834 22.304 112.383 22.304C113.023 22.304 113.543 22.4587 113.943 22.768C114.348 23.072 114.607 23.4987 114.719 24.048H113.975C113.89 23.7013 113.714 23.424 113.447 23.216C113.186 23.0027 112.831 22.896 112.383 22.896C111.983 22.896 111.634 22.9893 111.335 23.176C111.036 23.3573 110.804 23.6213 110.639 23.968C110.479 24.3093 110.399 24.72 110.399 25.2C110.399 25.68 110.479 26.0933 110.639 26.44C110.804 26.7813 111.036 27.0453 111.335 27.232C111.634 27.4133 111.983 27.504 112.383 27.504C112.831 27.504 113.186 27.4027 113.447 27.2C113.714 26.992 113.89 26.7173 113.975 26.376H114.719C114.607 26.9147 114.348 27.336 113.943 27.64C113.543 27.944 113.023 28.096 112.383 28.096ZM117.293 28.096C116.919 28.096 116.583 28.0107 116.285 27.84C115.986 27.6693 115.749 27.4293 115.573 27.12C115.402 26.8053 115.317 26.4373 115.317 26.016C115.317 25.5947 115.405 25.2293 115.581 24.92C115.757 24.6053 115.994 24.3627 116.293 24.192C116.597 24.0213 116.935 23.936 117.309 23.936C117.682 23.936 118.018 24.0213 118.317 24.192C118.615 24.3627 118.85 24.6053 119.021 24.92C119.197 25.2293 119.285 25.5947 119.285 26.016C119.285 26.4373 119.197 26.8053 119.021 27.12C118.845 27.4293 118.605 27.6693 118.301 27.84C118.002 28.0107 117.666 28.096 117.293 28.096ZM117.293 27.52C117.522 27.52 117.735 27.464 117.933 27.352C118.13 27.24 118.29 27.072 118.413 26.848C118.535 26.624 118.597 26.3467 118.597 26.016C118.597 25.6853 118.535 25.408 118.413 25.184C118.295 24.96 118.138 24.792 117.941 24.68C117.743 24.568 117.533 24.512 117.309 24.512C117.079 24.512 116.866 24.568 116.669 24.68C116.471 24.792 116.311 24.96 116.189 25.184C116.066 25.408 116.005 25.6853 116.005 26.016C116.005 26.3467 116.066 26.624 116.189 26.848C116.311 27.072 116.469 27.24 116.661 27.352C116.858 27.464 117.069 27.52 117.293 27.52ZM120.059 28V24.032H120.667L120.723 24.792C120.846 24.5307 121.033 24.3227 121.283 24.168C121.534 24.0133 121.843 23.936 122.211 23.936V24.64H122.027C121.793 24.64 121.577 24.6827 121.379 24.768C121.182 24.848 121.025 24.9867 120.907 25.184C120.79 25.3813 120.731 25.6533 120.731 26V28H120.059ZM122.805 28V24.032H123.413L123.453 24.744C123.581 24.4933 123.765 24.296 124.005 24.152C124.245 24.008 124.517 23.936 124.821 23.936C125.291 23.936 125.664 24.08 125.941 24.368C126.224 24.6507 126.365 25.088 126.365 25.68V28H125.693V25.752C125.693 24.9253 125.352 24.512 124.669 24.512C124.328 24.512 124.043 24.6373 123.813 24.888C123.589 25.1333 123.477 25.4853 123.477 25.944V28H122.805ZM129.008 28.096C128.629 28.096 128.293 28.0107 128 27.84C127.706 27.664 127.474 27.4213 127.304 27.112C127.138 26.8027 127.056 26.4373 127.056 26.016C127.056 25.6 127.138 25.2373 127.304 24.928C127.469 24.6133 127.698 24.3707 127.992 24.2C128.29 24.024 128.634 23.936 129.024 23.936C129.408 23.936 129.738 24.024 130.016 24.2C130.298 24.3707 130.514 24.5973 130.664 24.88C130.813 25.1627 130.888 25.4667 130.888 25.792C130.888 25.8507 130.885 25.9093 130.88 25.968C130.88 26.0267 130.88 26.0933 130.88 26.168H127.72C127.736 26.472 127.805 26.7253 127.928 26.928C128.056 27.1253 128.213 27.2747 128.4 27.376C128.592 27.4773 128.794 27.528 129.008 27.528C129.285 27.528 129.517 27.464 129.704 27.336C129.89 27.208 130.026 27.0347 130.112 26.816H130.776C130.669 27.184 130.464 27.4907 130.16 27.736C129.861 27.976 129.477 28.096 129.008 28.096ZM129.008 24.504C128.688 24.504 128.402 24.6027 128.152 24.8C127.906 24.992 127.765 25.2747 127.728 25.648H130.224C130.208 25.2907 130.085 25.0107 129.856 24.808C129.626 24.6053 129.344 24.504 129.008 24.504ZM131.618 28V24.032H132.226L132.282 24.792C132.405 24.5307 132.592 24.3227 132.842 24.168C133.093 24.0133 133.402 23.936 133.77 23.936V24.64H133.586C133.352 24.64 133.136 24.6827 132.938 24.768C132.741 24.848 132.584 24.9867 132.466 25.184C132.349 25.3813 132.29 25.6533 132.29 26V28H131.618ZM135.885 28.096C135.41 28.096 135.015 27.976 134.701 27.736C134.386 27.496 134.202 27.1707 134.149 26.76H134.837C134.879 26.968 134.989 27.1493 135.165 27.304C135.346 27.4533 135.589 27.528 135.893 27.528C136.175 27.528 136.383 27.4693 136.517 27.352C136.65 27.2293 136.717 27.0853 136.717 26.92C136.717 26.68 136.629 26.52 136.453 26.44C136.282 26.36 136.039 26.288 135.725 26.224C135.511 26.1813 135.298 26.12 135.085 26.04C134.871 25.96 134.693 25.848 134.549 25.704C134.405 25.5547 134.333 25.36 134.333 25.12C134.333 24.7733 134.461 24.4907 134.717 24.272C134.978 24.048 135.33 23.936 135.773 23.936C136.194 23.936 136.538 24.0427 136.805 24.256C137.077 24.464 137.234 24.7627 137.277 25.152H136.613C136.586 24.9493 136.498 24.792 136.349 24.68C136.205 24.5627 136.01 24.504 135.765 24.504C135.525 24.504 135.338 24.5547 135.205 24.656C135.077 24.7573 135.013 24.8907 135.013 25.056C135.013 25.216 135.095 25.3413 135.261 25.432C135.431 25.5227 135.661 25.6 135.949 25.664C136.194 25.7173 136.426 25.784 136.645 25.864C136.869 25.9387 137.05 26.0533 137.189 26.208C137.333 26.3573 137.405 26.576 137.405 26.864C137.41 27.2213 137.274 27.5173 136.997 27.752C136.725 27.9813 136.354 28.096 135.885 28.096Z"
                fill="black"
                fill-opacity="0.75"
              />
            </svg>